<?xml version="1.0" standalone="no"?>
<!DOCTYPE svg PUBLIC "-//W3C//DTD SVG 20010904//EN"
 "http://www.w3.org/TR/2001/REC-SVG-20010904/DTD/svg10.dtd">
<svg version="1.0" xmlns="http://www.w3.org/2000/svg"
 width="250.000000pt" height="250.000000pt" viewBox="0 0 250.000000 250.000000"
 preserveAspectRatio="xMidYMid meet">
<metadata>
Created by potrace 1.14, written by Peter Selinger 2001-2017
</metadata>
<g transform="translate(0.000000,250.000000) scale(0.100000,-0.100000)"
fill="#000000" stroke="none">
<path d="M1129 2496 c-2 -2 -26 -6 -54 -9 -386 -45 -762 -317 -943 -683 -89
-180 -125 -332 -126 -539 -1 -173 3 -210 39 -342 111 -407 417 -728 822 -861
145 -48 238 -61 413 -57 148 3 263 22 373 62 320 114 570 334 717 631 43 86
86 209 101 287 5 28 12 61 15 75 3 14 7 88 9 166 8 354 -113 654 -364 904
-142 141 -270 225 -441 288 -84 31 -178 57 -242 68 -39 6 -314 15 -319 10z"/>
</g>
</svg>
